<svg width="36" height="36" viewBox="0 0 36 36" fill="none" xmlns="http://www.w3.org/2000/svg">
<path d="M6 13.5H30L28.7475 27.2715C28.6798 28.0169 28.3359 28.71 27.7833 29.2148C27.2307 29.7197 26.5094 29.9997 25.761 30H10.239C9.49056 29.9997 8.76925 29.7197 8.2167 29.2148C7.66414 28.71 7.32023 28.0169 7.2525 27.2715L6 13.5Z" stroke="black" stroke-width="1.5" stroke-linejoin="round"/>
<path d="M12 16.5V12C12 10.4087 12.6321 8.88258 13.7574 7.75736C14.8826 6.63214 16.4087 6 18 6C19.5913 6 21.1174 6.63214 22.2426 7.75736C23.3679 8.88258 24 10.4087 24 12V16.5" stroke="black" stroke-width="1.5" stroke-linecap="round"/>
</svg>
