<svg width="36" height="36" viewBox="0 0 36 36" fill="none" xmlns="http://www.w3.org/2000/svg">
<path d="M17.25 30.3193L9.69336 22.7636L16.7197 29.7802L17.25 30.3095L17.7803 29.7802L24.8057 22.7636L17.25 30.3193ZM30.75 13.875C30.75 15.3548 30.2964 16.7199 29.5195 17.8633C30.2776 16.734 30.75 15.3502 30.75 13.875ZM17.7314 9.86813C17.7109 9.89846 17.691 9.92927 17.6709 9.95993H17.667L17.7314 9.86813ZM16.6416 9.69333L16.833 9.95993H16.8291C16.8257 9.9548 16.8227 9.94943 16.8193 9.94431L16.6416 9.69333ZM16.3447 9.31247C16.3683 9.34096 16.3919 9.36953 16.415 9.39841C16.3918 9.36959 16.3684 9.34091 16.3447 9.31247ZM16.041 8.9697C16.085 9.01626 16.1282 9.06352 16.1709 9.1113C16.1281 9.06364 16.0851 9.01617 16.041 8.9697ZM15.6943 8.6279C15.7566 8.68536 15.8187 8.74301 15.8789 8.8027C15.8186 8.74316 15.7568 8.68527 15.6943 8.6279ZM15.3145 8.30173C15.404 8.37333 15.4921 8.44657 15.5781 8.52243C15.4921 8.44675 15.4041 8.37324 15.3145 8.30173ZM18.9531 8.49216C18.973 8.47485 18.9936 8.45846 19.0137 8.44138C18.9936 8.45843 18.973 8.47489 18.9531 8.49216ZM19.3682 8.15915C19.3279 8.18915 19.2876 8.21914 19.248 8.24997C19.2876 8.21907 19.3279 8.18921 19.3682 8.15915ZM14.958 8.03513C15.0542 8.10257 15.1495 8.17105 15.2422 8.24313C15.1495 8.17118 15.0543 8.10251 14.958 8.03513ZM19.7236 7.9111C19.6662 7.94865 19.6089 7.98623 19.5527 8.02536C19.6089 7.98614 19.6663 7.94871 19.7236 7.9111ZM14.7764 7.9111C14.8067 7.93096 14.8372 7.95036 14.8672 7.97067C14.8372 7.95038 14.8067 7.93094 14.7764 7.9111ZM14.4014 7.68161C14.4352 7.7009 14.4694 7.7194 14.5029 7.73923C14.4694 7.71941 14.4352 7.70089 14.4014 7.68161ZM20.2529 7.5947C20.318 7.55971 20.3839 7.52612 20.4502 7.49313C20.384 7.52603 20.3182 7.55969 20.2529 7.5947ZM14.1152 7.52438C14.1543 7.54434 14.1918 7.56721 14.2305 7.58786C14.1448 7.5421 14.0584 7.49737 13.9707 7.45505C14.0188 7.47824 14.0676 7.50008 14.1152 7.52438ZM20.8193 7.32321C20.7373 7.35831 20.656 7.39534 20.5752 7.43356C20.6558 7.3954 20.7371 7.35839 20.8193 7.32321ZM13.6738 7.31931C13.7318 7.34406 13.7893 7.37012 13.8467 7.39645C13.7894 7.37017 13.7319 7.3441 13.6738 7.31931ZM21.2178 7.16696C21.1376 7.19568 21.0577 7.2252 20.9785 7.25681C21.0575 7.22529 21.1374 7.1957 21.2178 7.16696ZM13.2666 7.1611C13.3189 7.1797 13.371 7.19888 13.4229 7.21872C13.3711 7.19891 13.319 7.17973 13.2666 7.1611ZM21.4111 7.09958C21.454 7.08565 21.4968 7.0717 21.54 7.05856C21.4969 7.07172 21.454 7.0856 21.4111 7.09958ZM12.8486 7.02634C12.9045 7.04236 12.9602 7.05874 13.0156 7.07614C12.9603 7.05877 12.9045 7.04239 12.8486 7.02634ZM21.8369 6.97556C21.8769 6.96529 21.9168 6.95487 21.957 6.94528C21.9169 6.95491 21.8769 6.96523 21.8369 6.97556ZM12.4258 6.91989C12.4901 6.93413 12.5543 6.94878 12.6182 6.96481C12.5544 6.94881 12.4902 6.93417 12.4258 6.91989ZM12.0244 6.84274C12.1021 6.8553 12.1796 6.86863 12.2568 6.88376C12.1798 6.86865 12.1023 6.85535 12.0244 6.84274ZM22.2705 6.87888C22.305 6.87229 22.3394 6.86544 22.374 6.85934C22.3394 6.86548 22.305 6.87223 22.2705 6.87888ZM11.6543 6.79196C11.7049 6.79741 11.7553 6.80398 11.8057 6.81052C11.7554 6.80397 11.7049 6.79746 11.6543 6.79196ZM22.7178 6.80661C22.7447 6.80321 22.7718 6.80092 22.7988 6.79782C22.7718 6.80094 22.7447 6.80318 22.7178 6.80661ZM11.2432 6.75974C11.2738 6.76124 11.3044 6.76272 11.335 6.76462C11.3044 6.76268 11.2738 6.76129 11.2432 6.75974ZM20.0801 7.69235C20.0696 7.69835 20.0583 7.70388 20.0479 7.70993C20.0441 7.71212 20.0399 7.7136 20.0361 7.71579C20.0505 7.70743 20.0657 7.70062 20.0801 7.69235Z" fill="black" stroke="black" stroke-width="1.5"/>
</svg>
